<?xml version="1.0" standalone="no"?>
<!DOCTYPE svg PUBLIC "-//W3C//DTD SVG 20010904//EN"
 "http://www.w3.org/TR/2001/REC-SVG-20010904/DTD/svg10.dtd">
<svg version="1.0" xmlns="http://www.w3.org/2000/svg"
 width="1080.000000pt" height="1080.000000pt" viewBox="0 0 1080.000000 1080.000000"
 preserveAspectRatio="xMidYMid meet">

<g transform="translate(0.000000,1080.000000) scale(0.100000,-0.100000)"
fill="#000000" stroke="none">
<path d="M0 5400 l0 -5400 5400 0 5400 0 0 5400 0 5400 -5400 0 -5400 0 0
-5400z m4972 4998 c3 -7 4 -47 4 -88 -1 -68 -3 -75 -21 -75 -18 0 -20 8 -23
88 -3 80 -1 87 17 87 10 0 21 -6 23 -12z m189 -25 c1 -21 2 -59 4 -85 2 -41
-1 -47 -22 -51 -23 -4 -23 -3 -23 84 0 82 2 89 20 89 16 0 20 -7 21 -37z m69
22 c0 -8 -2 -15 -4 -15 -2 0 -6 7 -10 15 -3 8 -1 15 4 15 6 0 10 -7 10 -15z
m154 -11 c7 -19 2 -18 -19 6 -16 17 -16 20 -3 15 9 -4 19 -13 22 -21z m54 6
c-7 -10 -14 -18 -15 -16 -6 6 9 36 18 36 5 0 4 -9 -3 -20z m80 -74 c-3 -73 -5
-81 -23 -81 -18 0 -20 8 -23 73 -3 63 -1 72 15 73 11 0 13 3 6 6 -21 8 -15 22
7 16 19 -5 21 -12 18 -87z m188 22 c15 -40 31 -81 36 -90 7 -15 4 -18 -19 -18
-26 0 -30 5 -50 69 -20 64 -21 111 -3 111 5 0 21 -33 36 -72z m-644 45 c26
-23 25 -96 -2 -123 -30 -30 -38 -24 -27 20 8 28 8 52 0 80 -11 44 -2 52 29 23z
m760 -57 c-3 -66 -1 -76 17 -85 15 -9 23 -7 36 5 13 13 16 32 13 85 -2 38 0
69 4 69 17 0 38 -48 38 -86 0 -34 -5 -47 -26 -63 -24 -19 -24 -21 -9 -44 27
-43 -3 -45 -41 -3 -18 20 -38 36 -43 36 -20 0 -43 61 -36 96 5 31 28 64 43 64
4 0 6 -33 4 -74z m189 31 c0 -12 2 -43 4 -69 4 -52 1 -56 -27 -31 -14 12 -18
31 -18 80 0 61 1 63 20 53 11 -6 20 -21 21 -33z m177 -37 c2 -74 0 -80 -18
-80 -18 0 -20 7 -20 80 0 71 2 80 18 80 16 0 19 -10 20 -80z m-621 48 c-3 -8
-6 -5 -6 6 -1 11 2 17 5 13 3 -3 4 -12 1 -19z m-173 -60 c7 -12 6 -24 -4 -45
-14 -27 -14 -28 -18 -5 -2 16 -17 29 -48 42 -38 17 -44 23 -44 49 l0 29 52
-27 c28 -14 56 -34 62 -43z m-184 10 c0 -18 -2 -20 -9 -8 -6 8 -7 18 -5 22 9
14 14 9 14 -14z m-380 -82 l0 -74 703 -4 c386 -2 732 -1 770 0 l67 4 0 74 0
74 54 0 c30 0 57 -3 59 -7 3 -5 -17 -6 -44 -5 -43 3 -48 2 -43 -13 4 -10 1
-21 -7 -26 -9 -6 2 -8 31 -6 25 1 45 -2 45 -8 0 -5 -3 -9 -7 -7 -13 4 -9 -16
7 -32 17 -17 20 -46 5 -46 -15 0 -13 -157 3 -164 6 -3 2 -3 -10 -1 -16 5 -24
-1 -32 -22 l-11 -28 3 26 4 27 -181 -5 c-169 -4 -234 -15 -178 -30 14 -3 21
-11 18 -19 -3 -8 -2 -14 2 -14 4 0 5 -51 3 -112 -2 -62 -6 -106 -9 -98 -3 8
-13 21 -24 28 -10 7 -18 19 -18 27 0 32 -55 26 -63 -6 -3 -10 -11 -19 -19 -19
-10 0 -9 3 2 10 8 5 11 10 5 10 -5 0 -4 5 3 12 15 15 16 84 2 93 -6 4 -10 -8
-10 -28 0 -78 -49 -162 -100 -169 l-30 -5 0 144 0 143 35 0 c19 0 35 5 35 10
0 6 -49 10 -126 10 -81 0 -123 -4 -119 -10 3 -5 13 -10 21 -10 11 0 14 -21 14
-112 0 -124 -9 -156 -34 -123 -9 11 -16 25 -16 31 0 14 -42 53 -55 51 -12 -2
-34 57 -34 96 -1 50 -19 28 -26 -33 -4 -33 -10 -60 -15 -60 -4 0 -22 41 -39
90 -31 85 -34 90 -61 90 -31 0 -26 11 -132 -272 -34 -92 -44 -108 -62 -107
-11 0 -16 3 -10 5 14 6 6 50 -12 65 -8 6 -14 16 -14 22 0 6 -8 19 -17 30 -13
15 -14 18 -3 12 8 -5 3 3 -12 18 -16 14 -28 34 -28 45 0 10 -6 24 -12 31 -10
11 -10 13 -1 7 9 -5 12 -1 11 11 -4 37 15 94 35 105 20 10 20 12 4 17 -10 4
-36 5 -58 3 -35 -4 -38 -6 -22 -17 10 -7 22 -11 27 -7 5 3 7 -1 4 -9 -3 -8
-27 -78 -54 -156 -27 -80 -52 -137 -56 -130 -8 16 -98 277 -98 287 0 4 10 12
23 18 17 8 -5 11 -98 11 -74 0 -112 -3 -99 -9 15 -6 38 -58 98 -226 43 -121
79 -224 81 -230 2 -7 20 -14 39 -16 33 -4 37 -2 47 32 7 19 19 51 27 70 9 19
16 42 17 50 2 8 15 53 31 100 27 82 28 84 34 50 3 -20 20 -56 38 -81 37 -55
57 -125 49 -180 -5 -37 -3 -40 14 -36 10 3 21 1 24 -4 3 -4 12 -6 20 -4 51 16
49 15 30 29 -15 10 -16 16 -6 35 7 12 16 19 22 16 5 -4 6 -12 3 -18 -4 -7 9 4
30 22 28 27 39 32 48 23 7 -7 19 -12 28 -12 18 0 43 -25 53 -53 4 -11 2 -17
-6 -16 -23 3 -37 -1 -37 -11 0 -6 45 -10 115 -10 63 0 115 3 115 8 0 4 -9 13
-20 19 -10 7 -22 28 -26 48 -3 19 -10 38 -15 41 -5 3 -9 11 -9 17 0 7 4 6 11
-3 8 -12 9 -11 6 5 -2 11 -9 19 -16 17 -9 -2 -11 3 -8 13 4 8 3 15 -1 15 -9 0
-42 88 -41 110 0 8 10 -5 21 -30 12 -25 20 -52 19 -60 -2 -13 0 -13 8 -1 8 12
15 10 40 -12 58 -49 81 -83 81 -121 0 -30 -4 -36 -21 -36 -28 0 -19 -24 12
-29 29 -4 39 -17 39 -56 1 -25 2 -27 11 -13 5 9 7 29 5 43 -3 17 0 25 10 25
10 0 14 -13 15 -42 1 -24 3 -34 6 -23 15 71 1 64 136 67 95 2 121 6 119 16 -1
8 2 11 8 7 6 -4 9 -13 6 -21 -3 -8 -1 -14 4 -14 6 0 10 3 10 8 0 4 80 6 177 5
197 -3 225 0 217 22 -4 10 0 15 11 15 11 0 15 -5 11 -15 -4 -12 -2 -13 15 -2
18 11 20 22 18 130 -1 65 3 123 8 128 8 8 24 3 161 -49 282 -110 557 -276 794
-480 l78 -67 110 3 c154 5 253 -26 341 -105 38 -34 76 -95 84 -132 2 -9 6 -24
10 -33 10 -25 -5 -22 -46 8 -35 26 -111 68 -155 84 -42 16 -26 1 29 -26 60
-31 167 -103 167 -114 0 -10 -75 -61 -94 -64 -8 -1 -19 -5 -22 -9 -4 -4 -20
-7 -36 -7 l-28 0 51 -74 c48 -69 57 -76 113 -96 158 -56 244 -158 259 -309 l6
-54 -37 35 c-40 38 -111 88 -125 88 -5 0 13 -18 40 -39 26 -22 61 -50 76 -63
l29 -23 -37 -18 c-21 -10 -35 -23 -32 -30 3 -7 26 -66 52 -132 26 -66 58 -133
72 -149 13 -16 36 -52 51 -80 25 -47 27 -61 28 -176 0 -69 8 -168 17 -221 18
-99 36 -321 38 -469 l2 -85 8 70 c4 39 8 156 9 260 4 556 -163 1235 -462 1870
-94 201 -96 205 -74 205 34 0 243 -480 356 -820 100 -300 166 -577 207 -870
25 -179 25 -631 0 -785 -18 -110 -72 -335 -88 -366 -5 -10 -25 -77 -45 -150
-41 -152 -96 -319 -130 -398 -21 -46 -22 -52 -6 -46 119 51 241 69 425 62 142
-5 287 -24 287 -36 0 -24 -147 -180 -225 -238 -210 -158 -422 -182 -558 -62
-25 21 -47 39 -50 39 -3 0 -20 -26 -38 -57 -17 -32 -60 -101 -94 -154 l-63
-97 62 -6 c84 -9 205 -39 311 -75 48 -17 155 -47 237 -66 82 -20 155 -38 161
-41 10 -3 13 -100 14 -420 0 -341 3 -418 14 -426 11 -8 10 -8 -4 -4 -10 3 -22
6 -27 6 -21 0 -40 34 -40 73 0 137 -86 614 -118 657 -10 13 -38 35 -63 47 -70
37 -116 28 -240 -45 -56 -34 -109 -62 -116 -62 -12 0 -14 27 -12 148 l2 147
-51 3 c-103 6 -181 -38 -200 -112 -8 -28 -12 -31 -51 -32 -51 -2 -69 -14 -20
-14 53 0 60 -10 66 -94 l6 -77 -29 7 c-45 10 -92 31 -125 55 l-30 21 -25 -23
-25 -23 63 -19 c212 -62 401 -92 541 -84 l99 5 -5 -24 c-2 -13 -1 -25 4 -26 4
-2 12 -39 17 -83 6 -44 20 -143 31 -220 20 -137 34 -230 70 -487 l18 -127 -30
-11 c-40 -13 -147 -13 -203 1 -55 14 -64 32 -64 130 0 38 -9 205 -20 372 -24
347 -27 359 -100 388 -84 34 -147 24 -254 -40 -60 -36 -61 -36 -176 -36 -126
0 -147 7 -185 65 -38 57 -38 56 -11 -183 7 -59 9 -110 5 -113 -14 -8 -127 14
-174 35 -25 11 -59 30 -75 41 l-30 21 -80 -48 c-67 -39 -78 -50 -65 -58 48
-29 177 -128 227 -174 l57 -52 83 22 c46 12 117 35 159 50 41 15 80 24 85 21
10 -7 13 -44 4 -52 -3 -3 -3 -230 0 -505 3 -278 1 -506 -4 -512 -5 -9 -4 -13
5 -13 24 0 -12 -26 -61 -43 -362 -129 -884 -168 -1395 -102 -60 8 -159 19
-220 25 -271 28 -574 89 -1195 242 -361 88 -888 167 -1237 184 -137 7 -141 7
-137 28 17 92 28 133 40 151 8 12 12 24 9 27 -7 7 25 151 34 158 7 5 30 94 72
280 11 47 27 107 35 133 9 26 13 55 10 63 -3 8 -2 13 3 10 5 -3 12 16 16 42 4
26 11 54 15 62 4 8 10 32 13 53 4 35 3 37 -22 37 -45 0 -151 -20 -170 -32 -10
-6 -25 -25 -33 -42 -12 -25 -60 -202 -72 -266 -3 -19 -23 -92 -41 -150 -8 -25
-18 -67 -24 -95 -6 -27 -27 -108 -46 -180 -20 -71 -43 -159 -51 -195 -8 -35
-18 -68 -22 -72 -12 -12 -226 -22 -218 -10 3 6 0 13 -6 15 -8 3 -6 6 5 6 10 1
16 5 13 10 -6 10 12 86 68 281 20 69 36 134 36 145 0 11 7 33 15 48 8 15 10
25 5 22 -6 -4 -10 -2 -10 4 0 5 4 12 9 15 7 5 21 49 26 81 0 6 11 32 23 59 12
27 20 51 17 54 -3 3 -5 -1 -5 -8 0 -7 -2 -11 -5 -8 -8 7 26 98 36 98 5 0 9 6
9 14 0 7 25 37 55 65 30 29 55 54 55 55 0 2 -14 6 -30 10 -50 10 -185 76 -174
85 78 74 360 229 460 254 l51 12 -105 110 c-67 70 -107 105 -110 96 -11 -33
-75 -89 -138 -120 -63 -31 -77 -34 -159 -35 -110 0 -187 20 -315 81 -103 49
-225 127 -234 148 -5 15 70 51 185 89 179 59 298 80 413 74 42 -2 76 -2 76 -1
0 1 -29 46 -63 100 -84 129 -177 299 -225 410 -22 50 -73 142 -115 204 -163
246 -243 451 -298 769 -17 99 -22 172 -25 355 -1 127 2 262 6 300 4 39 11 100
15 137 7 72 8 81 30 203 8 44 17 94 19 110 27 154 126 502 206 720 86 235 272
654 299 675 11 8 101 157 101 166 0 5 -25 -28 -55 -74 l-54 -83 -18 33 c-12
24 -17 57 -18 118 0 75 4 93 31 151 36 76 153 200 249 266 80 54 175 107 181
101 10 -11 -17 -270 -36 -345 -46 -177 -134 -296 -245 -328 -31 -9 -70 -15
-86 -13 -18 3 -29 0 -29 -7 0 -7 -31 -77 -69 -156 -142 -296 -288 -702 -364
-1009 -38 -153 -82 -378 -92 -470 -3 -30 -7 -71 -10 -90 -15 -109 -22 -473
-11 -575 20 -180 56 -354 102 -488 32 -94 143 -331 151 -323 2 2 -12 68 -32
147 -42 175 -75 396 -75 506 0 84 -6 117 -20 108 -14 -9 -42 78 -48 146 -6 81
10 153 48 212 21 34 32 71 45 152 9 59 19 113 21 120 4 8 -9 15 -38 19 -71 11
-76 18 -43 63 16 21 54 67 84 102 34 40 46 58 30 48 -24 -16 -103 -109 -142
-167 l-17 -24 -1 29 c-1 17 -1 58 0 93 2 121 74 224 202 291 63 33 65 36 96
110 l31 76 -62 6 c-58 5 -127 31 -126 47 1 12 108 95 168 129 31 18 51 33 43
33 -18 0 -119 -62 -183 -112 l-51 -41 6 57 c7 73 44 153 93 200 69 67 223 126
329 126 33 0 31 -1 109 106 l36 52 -32 -7 c-18 -4 -63 -9 -100 -10 -75 -2
-139 19 -176 59 l-21 23 52 40 c29 22 81 53 117 70 36 16 59 32 52 34 -15 6
-133 -57 -185 -99 -21 -16 -40 -28 -43 -26 -6 6 19 74 44 125 38 73 119 128
237 159 66 18 223 17 309 -1 l69 -15 85 73 c150 129 222 180 417 298 87 53
251 135 287 144 15 4 32 13 39 21 6 8 20 14 31 14 11 0 37 9 57 19 20 11 50
23 66 27 82 20 75 -5 75 290 l0 264 75 0 75 0 0 -74z m499 -3 c2 -1 -10 -1
-28 0 -26 2 -31 6 -31 26 l0 24 28 -24 c15 -13 29 -25 31 -26z m1171 27 c0
-11 -2 -20 -4 -20 -2 0 -6 9 -9 20 -3 11 -1 20 4 20 5 0 9 -9 9 -20z m-1260
-10 c0 -13 -5 -18 -15 -14 -11 5 -12 9 -2 20 16 18 17 17 17 -6z m1025 1 c-3
-6 -11 -11 -16 -11 -5 0 -4 6 3 14 14 16 24 13 13 -3z m232 -53 c-3 -8 -6 -5
-6 6 -1 11 2 17 5 13 3 -3 4 -12 1 -19z m1116 -239 c130 -67 298 -207 357
-299 35 -54 60 -141 60 -206 0 -37 -26 -144 -35 -144 -1 0 -26 36 -55 80 -29
44 -55 80 -57 80 -3 0 1 -10 9 -22 44 -67 79 -139 72 -149 -10 -17 -104 -5
-152 20 -123 63 -216 247 -237 471 -7 74 -12 190 -7 190 1 0 22 -10 45 -21z
m-1309 -14 c7 -18 -14 -29 -41 -22 -14 4 -13 5 5 6 13 0 21 5 18 10 -3 5 -16
7 -29 5 -20 -4 -21 -4 -2 5 29 14 42 13 49 -4z m56 -29 c0 -10 -30 0 -34 11
-4 11 -1 11 14 3 11 -6 20 -12 20 -14z m67 -8 c-3 -8 -6 -5 -6 6 -1 11 2 17 5
13 3 -3 4 -12 1 -19z m-143 -13 c3 -8 1 -15 -4 -15 -6 0 -10 7 -10 15 0 8 2
15 4 15 2 0 6 -7 10 -15z m61 -33 c-3 -3 -11 0 -18 7 -9 10 -8 11 6 5 10 -3
15 -9 12 -12z m-976 -54 c5 -18 17 -54 25 -80 l15 -48 -59 0 -59 0 18 53 c28
79 40 107 45 107 3 0 9 -15 15 -32z m1001 11 c0 -5 -4 -9 -10 -9 -5 0 -10 7
-10 16 0 8 5 12 10 9 6 -3 10 -10 10 -16z m24 -19 c4 -25 3 -31 -4 -20 -5 8
-10 26 -10 39 0 32 6 24 14 -19z m106 13 c-1 -27 -1 -27 -15 -9 -12 16 -12 22
-2 28 17 11 17 11 17 -19z m-200 -23 c0 -5 -5 -10 -11 -10 -5 0 -7 5 -4 10 3
6 8 10 11 10 2 0 4 -4 4 -10z m70 -10 c0 -5 -4 -10 -10 -10 -5 0 -10 5 -10 10
0 6 5 10 10 10 6 0 10 -4 10 -10z m11 -69 c1 -29 3 -31 7 -11 l5 25 7 -25 c4
-14 12 -24 18 -23 6 2 9 -4 5 -12 -5 -13 -7 -13 -18 2 -13 17 -14 17 -20 1 -4
-10 -13 -18 -21 -18 -10 0 -14 15 -14 55 0 44 3 53 15 49 9 -4 16 -20 16 -43z
m-76 -11 c16 -17 16 -20 3 -15 -9 4 -19 13 -22 21 -7 19 -2 18 19 -6z m-3667
-215 c124 -164 192 -334 179 -448 -6 -48 -41 -134 -70 -171 -14 -19 -16 -17
-42 34 -15 30 -38 82 -51 115 -18 44 -23 51 -18 25 3 -19 23 -70 44 -114 l39
-79 -44 6 c-46 7 -115 36 -115 49 0 4 -6 8 -14 8 -18 0 -80 69 -105 117 -69
137 -77 377 -19 596 l21 79 59 -59 c33 -32 94 -103 136 -158z m6004 98 c17
-72 22 -118 22 -253 0 -147 -2 -172 -22 -230 -44 -125 -113 -199 -216 -233
-52 -18 -90 -22 -84 -9 2 4 15 30 29 57 28 52 59 147 58 174 0 9 -8 -9 -18
-39 -15 -46 -74 -175 -87 -189 -10 -11 -46 38 -65 88 -31 83 -24 210 18 307
46 108 160 270 272 386 42 44 57 54 63 44 4 -8 18 -54 30 -103z m-2712 97 c0
-5 -5 -10 -11 -10 -5 0 -7 5 -4 10 3 6 8 10 11 10 2 0 4 -4 4 -10z m-240 -16
c0 -14 -3 -14 -15 -4 -8 7 -15 14 -15 16 0 2 7 4 15 4 8 0 15 -7 15 -16z m265
-21 c5 -21 8 -24 16 -12 5 7 9 9 9 3 0 -5 -7 -19 -16 -30 -8 -10 -12 -13 -8
-5 5 10 1 11 -15 6 -29 -9 -48 33 -23 53 23 18 29 15 37 -15z m-640 7 c-16 -4
-26 -8 -21 -9 5 0 2 -9 -7 -19 -10 -10 -14 -22 -10 -25 3 -4 1 -7 -5 -7 -16 0
-15 15 2 30 8 6 12 18 9 26 -4 10 3 14 28 13 l34 -1 -30 -8z m65 -15 c0 -8 3
-14 8 -14 23 4 42 -2 37 -11 -5 -8 -11 -7 -21 1 -11 9 -14 8 -14 -2 0 -8 -7
-4 -15 8 -10 14 -22 20 -33 17 -14 -5 -15 -4 -2 5 21 15 40 13 40 -4z m-60
-39 c0 -3 -4 -8 -10 -11 -5 -3 -10 -1 -10 4 0 6 5 11 10 11 6 0 10 -2 10 -4z
m535 -64 c-8 -8 -25 10 -25 26 0 13 2 13 14 -4 8 -10 13 -21 11 -22z m85 33
c0 -8 -62 -37 -67 -31 -3 3 10 12 28 20 42 18 39 17 39 11z m324 -7 c-5 -8 5
-9 37 -5 52 7 33 -8 -23 -18 -34 -7 -38 -5 -38 14 0 12 6 21 16 21 9 0 12 -5
8 -12z m2696 -758 c0 -204 -11 -270 -66 -386 -59 -125 -164 -198 -293 -203
l-54 -2 54 59 c30 32 65 78 78 103 28 52 22 46 -46 -41 -28 -36 -62 -75 -76
-88 l-25 -24 -21 57 c-44 118 -22 246 66 376 59 89 206 239 298 307 l70 51 8
-32 c4 -18 7 -97 7 -177z m-6743 126 c287 -243 394 -445 332 -629 -30 -88 -32
-90 -109 -85 -85 6 -146 34 -204 94 -99 102 -146 253 -146 469 0 152 9 225 26
225 7 0 53 -33 101 -74z m-224 -712 c40 -26 96 -63 126 -82 29 -20 93 -74 141
-121 114 -113 162 -203 162 -307 -1 -38 -7 -87 -15 -109 -12 -34 -19 -41 -53
-48 -107 -23 -218 17 -303 109 -107 117 -167 287 -178 507 l-6 118 27 -11 c15
-5 59 -31 99 -56z m7186 -80 c-22 -264 -129 -489 -264 -554 -60 -29 -140 -43
-201 -35 l-54 6 48 38 c53 43 124 118 141 150 7 12 -30 -21 -81 -74 -51 -52
-99 -95 -105 -95 -19 0 -28 46 -28 135 1 67 5 90 29 140 56 116 286 317 471
413 l40 20 6 -22 c4 -12 3 -67 -2 -122z m-7238 -689 c270 -115 407 -223 454
-356 15 -42 24 -164 13 -175 -8 -7 -122 61 -186 113 -54 43 -55 44 -22 9 37
-40 160 -126 179 -126 6 0 11 -4 11 -9 0 -10 -106 -41 -143 -41 -177 0 -361
181 -445 440 -27 81 -51 197 -44 205 10 10 50 -3 183 -60z m7359 53 c0 -7 -9
-49 -19 -93 -79 -325 -260 -537 -461 -539 -62 -1 -160 19 -160 33 1 3 23 17
50 30 58 28 165 112 174 138 5 12 -4 7 -26 -13 -52 -49 -140 -112 -180 -129
l-37 -15 2 78 c2 61 8 88 29 133 63 127 239 249 503 350 109 42 125 45 125 27z
m-7306 -798 c154 -27 241 -52 342 -100 140 -67 209 -149 229 -267 l7 -42 -69
19 c-37 10 -88 26 -113 35 -25 9 -40 11 -34 5 8 -8 174 -73 182 -71 26 9 17
-6 -18 -28 -93 -58 -200 -70 -296 -33 -152 58 -324 247 -413 455 l-20 47 41 0
c22 0 95 -9 162 -20z m7256 -4 c-71 -187 -237 -389 -376 -457 -113 -56 -241
-53 -337 8 -33 21 -44 36 -23 34 14 -1 179 61 211 80 53 32 42 31 -29 -1 -47
-22 -194 -70 -212 -70 0 0 2 22 7 49 11 69 52 144 102 185 118 97 415 190 624
195 41 1 42 0 33 -23z m-6641 -780 c151 -27 254 -96 294 -197 l16 -41 -135 4
c-155 4 -137 -10 23 -19 l102 -6 -25 -31 c-39 -45 -120 -94 -180 -107 -146
-33 -349 57 -525 231 -91 90 -116 127 -101 142 32 32 392 48 531 24z m6665
-607 c3 -17 6 -66 6 -108 -1 -163 -92 -323 -256 -449 -23 -18 -48 -32 -55 -31
-11 0 -11 2 -1 6 6 2 9 10 5 16 -10 16 -9 307 1 307 5 0 3 7 -4 15 -10 12 -10
15 1 16 8 0 5 4 -6 8 -17 7 -13 10 25 21 103 27 187 93 241 188 13 23 27 42
30 42 4 0 9 -14 13 -31z m-724 -416 c22 -112 30 -159 40 -243 6 -47 19 -139
30 -205 10 -66 21 -147 25 -180 5 -55 18 -134 31 -193 3 -17 1 -21 -7 -16 -8
4 -9 3 -5 -4 20 -32 -59 -121 -85 -95 -8 8 -7 13 2 18 8 6 10 4 4 -5 -5 -9 -4
-11 4 -6 8 5 9 12 3 19 -6 7 -15 55 -22 107 -6 52 -18 133 -25 180 -23 136
-24 146 -51 335 -14 99 -27 203 -30 230 -3 28 -9 52 -15 53 -9 4 67 59 83 61
4 1 12 -25 18 -56z m485 -309 c121 -51 270 -67 375 -40 30 8 57 13 59 11 6 -7
-104 -118 -158 -157 -98 -73 -282 -139 -333 -119 -13 6 -16 10 -8 11 13 0 13
1 0 10 -8 5 -10 10 -5 10 6 0 9 45 7 122 -3 109 -2 124 15 136 17 14 17 14 -2
10 -16 -4 -20 1 -21 24 -1 26 0 27 15 14 9 -9 35 -23 56 -32z m-952 -386 c0
-216 2 -441 6 -500 3 -59 2 -119 -2 -133 -6 -16 -5 -30 2 -38 22 -27 -108
-148 -197 -183 -33 -13 -35 -13 -18 1 11 8 16 15 10 15 -5 0 -8 206 -7 535 1
400 -1 535 -10 535 -6 0 0 8 13 17 14 9 27 19 30 23 3 3 35 25 72 49 37 23 72
49 79 57 6 8 14 14 18 14 3 0 5 -177 4 -392z m-5998 224 c78 -26 127 -51 120
-63 -4 -5 0 -7 7 -4 11 4 12 -93 10 -526 -3 -425 -1 -534 10 -546 12 -15 11
-15 -10 -2 -12 8 -20 19 -18 25 2 6 -2 11 -9 10 -7 0 -77 60 -156 134 -180
171 -245 222 -328 254 l-66 26 1 77 c1 43 2 83 4 88 1 6 2 13 1 17 -2 16 49
39 115 53 75 16 234 19 302 6 l44 -9 -7 36 c-23 124 -169 310 -314 400 -79 49
-72 52 104 47 95 -2 146 -9 190 -23z m711 -44 c4 -6 2 -14 -5 -16 -9 -3 -9 -7
0 -18 7 -9 7 -14 1 -14 -5 0 -19 -17 -29 -37 -57 -111 -204 -407 -232 -468
-18 -38 -36 -77 -40 -86 -5 -8 -21 -40 -36 -70 -15 -30 -31 -61 -36 -69 -5 -8
-20 -36 -34 -62 -22 -41 -30 -48 -55 -48 -32 0 -70 -30 -70 -55 0 -9 7 -30 16
-48 l17 -32 -27 24 c-38 35 -34 78 16 181 22 47 72 148 110 224 37 77 68 145
68 152 0 7 3 14 8 16 4 2 23 37 44 78 20 41 55 113 79 160 23 47 52 106 65
131 12 25 33 50 46 56 31 15 85 16 94 1z m225 -89 c58 -46 80 -78 69 -99 -6
-11 -5 -21 3 -30 8 -8 8 -11 1 -7 -13 8 -21 -10 -180 -392 -119 -285 -129
-325 -97 -371 23 -33 38 -45 101 -76 46 -24 66 -27 180 -30 129 -3 177 -13
267 -55 75 -35 113 -75 131 -135 16 -55 16 -56 -7 -80 -73 -78 -252 -46 -384
69 -127 110 -375 273 -520 342 -100 47 -117 59 -104 68 18 14 51 73 56 101 2
10 12 31 23 46 11 16 20 35 20 43 0 9 5 19 11 22 5 4 21 30 33 58 51 112 117
253 126 267 5 8 25 47 44 85 19 39 41 81 50 95 8 14 27 51 42 82 l28 56 34
-14 c19 -7 51 -28 73 -45z m-557 -120 c-3 -5 -1 -9 5 -9 5 0 12 -9 16 -19 7
-22 -24 -93 -37 -85 -4 3 -8 0 -8 -7 0 -7 -2 -10 -4 -8 -2 2 -1 24 4 49 6 31
5 49 -3 59 -7 8 -10 25 -9 39 3 17 0 22 -9 17 -8 -6 -10 -4 -4 4 5 9 13 7 31
-10 13 -12 21 -26 18 -30z m264 -914 c132 -39 215 -172 170 -270 -17 -37 -77
-65 -137 -65 -38 0 -67 9 -128 41 -70 36 -241 160 -203 147 13 -5 15 2 10 48
-3 30 -2 54 3 54 4 0 8 10 7 23 -1 12 -2 25 -1 30 2 14 225 8 279 -8z m592
-401 c126 -36 212 -105 264 -214 29 -61 31 -72 31 -180 0 -96 -4 -124 -23
-173 -45 -110 -130 -191 -247 -233 -41 -15 -91 -19 -267 -22 -120 -2 -218 0
-218 4 0 4 7 12 16 18 28 21 34 88 34 401 0 311 -6 380 -36 392 -8 3 -14 11
-14 17 0 19 388 10 460 -10z m924 15 c2 -2 6 -41 10 -86 7 -86 -2 -106 -24
-53 -16 39 -79 95 -123 109 -20 7 -87 13 -149 14 l-113 2 0 -180 0 -180 110 1
c124 2 178 18 197 58 21 47 28 27 28 -74 0 -55 -2 -100 -5 -100 -2 0 -11 13
-19 29 -24 45 -78 61 -207 61 l-110 0 3 -196 c4 -236 -4 -224 138 -224 132 0
187 18 239 77 23 25 41 52 41 59 0 7 5 16 10 19 6 4 10 -27 10 -84 l0 -91
-305 0 c-168 0 -305 3 -305 6 0 3 9 17 20 31 19 25 20 41 20 389 0 351 -1 365
-20 384 -11 11 -20 24 -20 28 0 8 567 9 574 1z m553 -14 c51 -17 52 -18 60
-69 l8 -51 5 68 5 68 311 2 312 2 6 -69 c7 -73 1 -93 -18 -62 -46 78 -96 106
-188 106 l-48 0 0 -357 c0 -359 6 -428 36 -440 39 -15 3 -23 -103 -23 l-116 0
24 26 24 26 3 384 3 384 -53 0 c-72 -1 -130 -29 -164 -79 -15 -23 -31 -41 -35
-41 -5 0 -9 -13 -9 -30 0 -42 -11 -37 -39 16 -47 88 -141 144 -242 144 -87 0
-151 -42 -170 -113 -22 -83 35 -152 170 -207 206 -85 259 -118 290 -184 78
-159 -68 -336 -277 -336 -84 0 -181 23 -244 57 l-48 26 0 94 c0 51 2 93 4 93
3 0 19 -27 37 -61 61 -113 164 -180 283 -183 96 -2 166 60 166 148 0 78 -61
136 -208 197 -191 79 -243 119 -263 201 -28 119 36 224 164 270 67 24 236 20
314 -7z m1208 -341 c170 -403 173 -410 209 -443 14 -14 26 -28 26 -33 0 -4
-49 -8 -110 -8 -67 0 -110 4 -110 10 0 6 5 10 10 10 6 0 10 11 10 25 0 33 -87
246 -106 261 -15 12 -228 17 -290 7 -29 -5 -34 -11 -73 -109 -43 -110 -52
-170 -26 -180 35 -14 10 -24 -55 -24 -73 0 -86 8 -47 29 12 6 32 26 44 44 26
39 263 623 264 652 1 11 -2 34 -6 51 -7 29 -5 32 42 52 26 11 52 19 57 18 6
-1 78 -164 161 -362z m827 329 c178 -84 273 -269 240 -465 -29 -172 -116 -271
-302 -345 -24 -10 -23 -12 45 -55 118 -77 221 -96 302 -57 24 12 46 19 49 16
3 -2 -19 -29 -48 -60 -69 -72 -116 -88 -185 -62 -53 20 -126 84 -179 157 l-36
48 -76 0 c-93 0 -189 31 -260 84 -60 43 -94 87 -130 164 -25 52 -27 67 -27
182 0 119 1 128 31 190 55 114 128 179 249 223 39 13 74 17 155 14 94 -2 112
-6 172 -34z m495 23 c3 -2 -5 -14 -16 -25 -20 -20 -21 -31 -21 -299 0 -296 5
-339 49 -401 52 -73 192 -112 286 -81 53 18 109 71 136 133 23 49 24 65 27
292 4 276 -2 310 -57 355 -19 17 -31 30 -26 31 33 4 141 5 147 2 4 -2 -2 -18
-15 -34 -21 -30 -22 -41 -28 -317 -6 -304 -8 -324 -58 -394 -56 -79 -151 -114
-282 -105 -134 9 -227 65 -276 165 l-28 57 -5 287 c-5 280 -6 287 -27 310 -13
14 -23 26 -23 29 0 5 211 1 217 -5z m1136 -76 c7 -74 2 -117 -10 -82 -13 36
-73 100 -114 120 -39 19 -64 23 -165 25 l-119 2 0 -180 0 -180 111 2 c130 2
175 16 199 63 9 18 19 30 22 27 6 -7 6 -197 -1 -204 -2 -3 -11 9 -20 25 -24
46 -77 62 -206 62 l-110 0 0 -182 c0 -242 -5 -232 129 -236 141 -4 196 13 250
74 23 26 41 53 41 60 0 7 5 16 10 19 6 4 10 -27 10 -84 l0 -91 -305 0 c-168 0
-305 4 -305 8 0 5 8 16 19 26 27 25 31 99 24 448 -6 284 -8 313 -25 330 -10
10 -18 21 -18 26 0 4 129 6 287 6 l288 -1 8 -83z m-3562 -1019 c155 -59 239
-220 226 -431 -13 -201 -96 -322 -258 -371 -58 -17 -87 -20 -162 -16 -110 6
-150 17 -213 60 -99 66 -152 172 -161 322 -14 246 92 413 290 455 70 15 215 5
278 -19z m1097 -340 c85 -203 162 -383 173 -400 18 -31 20 -31 98 -31 63 0 80
3 85 16 8 20 8 682 0 712 -5 18 -13 22 -46 22 -32 0 -39 3 -36 18 3 15 17 17
104 20 93 2 101 1 121 -20 11 -13 105 -137 207 -277 103 -139 198 -268 211
-285 l25 -31 -3 285 -2 285 -48 3 c-39 3 -48 6 -45 20 3 15 19 17 111 20 102
3 107 2 107 -18 0 -16 -6 -20 -34 -20 -22 0 -36 -6 -40 -16 -3 -9 -6 -189 -6
-400 0 -335 -2 -384 -15 -384 -17 0 -34 22 -231 290 -75 102 -179 244 -232
315 l-97 130 -3 -330 c-1 -181 0 -336 3 -342 2 -8 22 -13 45 -13 33 0 40 -3
40 -20 0 -20 -7 -20 -290 -20 -283 0 -290 0 -290 20 0 18 7 20 55 20 54 0 55
1 55 29 0 16 -18 71 -39 122 l-39 94 -164 3 -164 2 -42 -105 c-58 -147 -58
-151 31 -145 21 1 27 -3 27 -19 0 -20 -5 -21 -120 -21 -113 0 -120 1 -120 20
0 16 7 20 34 20 25 0 40 7 54 24 10 14 82 177 160 363 77 186 148 355 157 376
31 75 39 63 203 -332z m1727 339 c44 -16 75 -38 115 -79 75 -76 101 -143 108
-280 10 -218 -59 -357 -216 -429 -81 -37 -223 -43 -318 -13 -160 49 -243 164
-259 356 -20 245 89 423 287 465 72 15 216 5 283 -20z m-3730 -3 c162 -46 233
-132 255 -310 24 -195 -33 -358 -150 -432 -77 -49 -130 -58 -368 -63 -214 -4
-224 -3 -220 14 2 14 14 20 41 22 l37 3 -2 372 -3 372 -37 3 c-36 3 -48 18
-30 36 12 14 422 -1 477 -17z m1276 -996 c23 -23 29 -38 29 -72 0 -65 -35
-125 -128 -216 l-85 -83 89 0 c64 0 96 4 110 15 28 21 30 19 26 -25 l-4 -40
-145 0 -146 0 44 48 c111 119 169 214 169 278 0 75 -69 106 -140 63 l-35 -21
20 22 c34 39 78 60 123 60 35 0 49 -6 73 -29z m357 -4 c104 -68 125 -256 40
-353 -43 -48 -83 -67 -146 -67 -72 0 -127 38 -164 112 -54 106 -27 245 60 305
49 34 58 33 22 -2 -73 -73 -57 -272 29 -363 32 -33 44 -39 78 -39 81 0 126
100 104 232 -19 110 -68 180 -142 199 -29 7 -25 8 23 5 41 -2 68 -10 96 -29z
m313 23 c25 -14 49 -62 49 -98 0 -52 -48 -127 -135 -211 l-85 -81 93 0 c68 0
99 4 115 16 22 15 22 14 22 -25 l0 -41 -145 0 c-80 0 -145 3 -145 6 0 3 33 42
74 85 85 91 129 169 130 236 1 36 -4 49 -23 64 -31 25 -82 24 -116 -3 -26 -21
-27 -21 -14 0 31 49 130 78 180 52z m309 -135 l0 -145 30 0 c18 0 30 -5 30
-13 0 -19 -21 -37 -42 -37 -14 0 -18 -8 -18 -36 0 -19 5 -44 10 -55 10 -18 7
-19 -45 -19 -52 0 -55 1 -45 19 5 11 10 36 10 55 l0 36 -91 0 c-69 0 -90 3
-86 13 9 23 231 327 239 327 4 0 8 -65 8 -145z m1381 98 c12 3 16 0 12 -10 -5
-12 -15 -14 -47 -8 -23 3 -49 6 -58 6 -10 0 -18 4 -18 9 0 14 23 17 59 8 18
-5 42 -8 52 -5z m2267 2 c17 0 32 -4 32 -8 0 -15 -34 -20 -71 -10 -26 7 -41 7
-49 -1 -6 -6 -10 -6 -10 0 0 20 24 34 45 27 11 -4 35 -8 53 -8z m-6978 -174
c0 -153 2 -170 18 -174 9 -3 -5 -5 -33 -6 -34 0 -45 2 -35 9 22 14 26 303 4
325 -14 13 -12 15 15 15 l31 0 0 -169z m100 85 c0 -47 4 -87 9 -90 6 -4 5 -20
0 -42 -11 -37 -4 -90 13 -111 16 -20 66 -16 78 6 5 11 10 45 10 75 0 43 -5 61
-20 76 -19 19 -19 20 -2 20 36 0 57 -37 57 -102 0 -51 -4 -63 -24 -79 -29 -23
-99 -26 -107 -4 -8 21 -32 19 -37 -2 -3 -10 -5 55 -6 144 -1 132 -4 164 -17
177 -14 15 -13 16 15 16 l31 0 0 -84z m-1651 8 c-12 -15 -39 -8 -39 11 0 18
22 25 38 12 9 -7 9 -13 1 -23z m1238 20 c8 -20 -8 -36 -26 -25 -15 10 -8 41 9
41 6 0 13 -7 17 -16z m4774 -16 c34 -10 39 -15 39 -42 l0 -31 -13 25 c-28 55
-110 66 -123 16 -9 -36 10 -61 56 -76 87 -29 117 -94 65 -145 -25 -26 -56 -30
-127 -19 -37 6 -38 8 -37 48 l1 41 14 -32 c16 -37 41 -53 81 -53 36 0 53 16
53 50 0 32 -21 53 -78 75 -54 22 -76 60 -61 103 16 48 60 61 130 40z m221 -30
c49 -129 90 -215 109 -230 21 -18 20 -18 -42 -17 -49 0 -59 2 -41 9 26 11 26
8 7 54 -15 36 -16 36 -74 36 -57 0 -59 -1 -70 -31 -15 -44 -14 -57 7 -62 9 -3
-3 -5 -27 -6 -42 -1 -43 -1 -23 17 11 9 44 74 73 145 29 70 55 127 59 127 3 0
13 -19 22 -42z m346 22 c79 -48 83 -189 7 -248 -20 -16 -42 -22 -77 -22 -93 0
-138 46 -138 140 0 100 44 147 140 149 19 1 50 -8 68 -19z m331 9 c24 -9 31
-16 30 -37 0 -26 0 -26 -9 -4 -18 45 -97 55 -119 14 -16 -31 6 -62 63 -87 63
-28 91 -63 82 -100 -14 -56 -67 -76 -155 -59 -28 6 -31 10 -30 43 0 20 3 29 6
21 21 -57 93 -79 128 -40 29 33 10 70 -50 98 -65 31 -85 50 -85 79 0 67 61 99
139 72z m151 2 c3 -1 3 -30 2 -66 -3 -61 -2 -65 18 -65 31 0 60 18 60 37 0 9
3 13 7 10 3 -4 6 -25 5 -47 -1 -55 -2 -58 -12 -32 -7 17 -17 22 -45 22 l-35 0
0 -65 0 -65 44 0 c60 0 76 8 92 44 l13 31 1 -42 0 -43 -112 0 c-82 1 -108 3
-95 11 15 9 17 26 17 134 0 112 -2 125 -17 125 -13 0 -15 2 -5 8 11 7 30 8 62
3z m138 -32 c2 -30 1 -32 -9 -14 -17 28 -29 35 -64 36 -29 1 -29 1 -5 9 14 4
36 6 50 5 21 -2 25 -8 28 -36z m123 -27 l-2 -62 39 0 c57 0 106 -36 110 -81 5
-58 -22 -73 -132 -77 -79 -3 -89 -2 -73 10 17 13 18 27 15 144 l-3 129 24 -1
c24 -1 25 -3 22 -62z m122 36 c21 -25 22 -47 1 -76 -24 -35 -45 -29 -33 10 10
36 -10 78 -36 78 -8 0 -15 4 -15 10 0 16 64 -1 83 -22z m237 -95 c56 -137 65
-153 86 -153 10 0 14 14 14 48 l0 47 19 -41 c20 -43 36 -54 80 -54 34 0 51 17
51 51 0 32 -33 62 -86 79 -65 22 -78 95 -22 134 27 19 48 20 99 4 35 -10 39
-15 38 -42 0 -28 -1 -29 -9 -10 -20 50 -83 69 -115 34 -31 -34 -13 -67 53 -96
31 -13 63 -32 70 -41 19 -27 14 -72 -11 -97 -22 -22 -30 -23 -163 -23 -76 0
-129 2 -116 4 26 5 28 23 7 63 -14 28 -19 30 -73 30 -57 0 -58 -1 -70 -33 -16
-45 -15 -55 6 -60 9 -3 -3 -5 -28 -5 -25 0 -38 2 -28 5 10 2 34 45 59 104 23
54 44 98 46 96 2 -2 -4 -20 -12 -40 -22 -53 -20 -57 30 -57 25 0 45 4 45 9 0
23 -44 110 -53 104 -7 -4 -8 0 -3 13 5 10 11 27 13 37 3 9 9 17 13 17 4 0 31
-57 60 -127z m539 88 c0 -32 -1 -33 -9 -13 -10 24 -21 30 -59 34 -23 3 -23 3
-28 -125 -4 -125 -3 -127 19 -137 18 -7 9 -9 -37 -8 -33 0 -52 2 -42 5 15 4
17 19 17 139 0 101 -3 134 -12 133 -38 -3 -63 -17 -69 -39 -6 -22 -7 -21 -8
10 l-1 35 115 1 115 1 -1 -36z m118 25 c4 -3 -1 -6 -11 -6 -15 0 -16 -13 -14
-127 l3 -128 25 -3 c21 -2 30 5 48 40 13 24 20 35 17 25 -17 -58 -17 -65 2
-70 10 -3 -25 -5 -77 -5 -52 0 -87 2 -77 5 15 4 17 19 17 134 0 79 -4 129 -10
129 -5 0 -10 4 -10 10 0 10 76 7 87 -4z m214 -118 c41 -98 62 -136 80 -145 21
-11 15 -13 -46 -11 -38 0 -60 3 -47 5 26 5 28 23 7 63 -15 28 -19 30 -76 30
-45 0 -60 3 -56 13 30 75 40 97 43 94 3 -2 -3 -20 -11 -40 -22 -53 -20 -57 30
-57 25 0 45 4 45 9 0 23 -44 110 -53 104 -7 -4 -8 0 -3 13 5 10 11 27 13 37 3
9 8 17 12 17 4 0 32 -60 62 -132z m310 109 c44 -30 59 -60 59 -125 0 -92 -47
-142 -135 -142 -57 0 -100 23 -120 66 -22 46 -19 122 5 162 38 61 130 80 191
39z m-9600 -10 c47 -31 67 -90 51 -146 -14 -45 -75 -111 -102 -111 -24 0 -32
74 -13 112 7 15 13 38 13 53 0 20 -5 25 -23 25 -41 0 -87 -72 -87 -137 0 -37
29 -41 57 -7 12 16 23 24 23 19 0 -21 -51 -65 -76 -65 -59 0 -53 103 11 167
29 29 38 32 89 32 43 -1 56 -4 52 -14 -12 -32 -28 -136 -22 -142 12 -12 40 12
60 51 24 50 15 99 -29 143 -28 28 -40 33 -83 33 -61 0 -108 -29 -140 -88 -28
-50 -31 -125 -7 -171 18 -36 81 -70 128 -71 33 0 94 24 119 47 10 9 21 14 24
10 3 -3 -13 -18 -37 -34 -36 -24 -53 -28 -110 -28 -73 0 -103 14 -143 69 -34
44 -29 133 10 188 44 63 86 88 149 88 38 0 61 -6 86 -23z m1077 -58 l27 -2
-28 -4 -28 -4 3 -87 c3 -82 4 -87 25 -86 12 0 20 -3 17 -8 -3 -4 -18 -8 -34
-8 -40 0 -50 23 -50 114 0 65 -2 76 -17 77 -12 0 -8 4 9 10 15 6 31 20 35 32
7 21 8 20 11 -5 3 -22 9 -28 30 -29z m2000 0 c42 -1 70 -3 61 -6 -15 -4 -15
-10 4 -69 12 -35 24 -64 27 -64 3 0 19 31 36 70 16 38 32 70 35 70 4 0 20 -31
35 -70 16 -38 31 -70 34 -70 3 0 15 29 27 64 19 59 19 65 4 69 -9 3 2 5 24 5
22 0 33 -2 24 -5 -10 -2 -30 -40 -51 -96 -20 -51 -39 -91 -44 -90 -5 1 -21 31
-36 65 -14 35 -29 63 -33 63 -3 0 -19 -29 -35 -65 -16 -36 -32 -65 -36 -65 -3
0 -21 41 -39 90 l-32 90 -42 3 -42 3 3 -88 c3 -83 4 -88 25 -87 12 0 20 -3 17
-8 -3 -4 -18 -8 -34 -8 -40 0 -50 23 -50 114 0 65 -2 76 -17 77 -12 0 -8 4 9
10 15 6 31 20 35 32 7 21 8 20 11 -5 3 -28 4 -28 80 -29z m-2628 -29 c0 -11
-7 -20 -15 -20 -8 0 -15 9 -15 20 0 33 -30 23 -46 -15 -7 -19 -14 -59 -14 -89
0 -49 2 -55 23 -59 12 -2 -3 -5 -33 -5 -30 0 -49 2 -42 5 8 3 12 32 12 93 0
61 -4 90 -12 93 -7 3 2 6 20 6 25 1 32 -3 32 -19 0 -17 2 -17 25 6 20 20 28
23 45 14 11 -6 20 -20 20 -30z m179 16 c17 -11 33 -77 27 -109 -13 -63 -77
-95 -141 -71 -39 15 -58 104 -32 154 21 42 98 55 146 26z m1057 -13 c33 -43
29 -109 -9 -150 -27 -30 -98 -32 -127 -3 -52 52 -29 180 32 180 17 0 16 -2 -3
-21 -18 -18 -21 -30 -17 -86 4 -67 14 -83 54 -83 29 0 45 21 51 68 6 47 -13
112 -32 112 -8 0 -16 4 -20 9 -10 18 57 -8 71 -26z m-1556 10 c0 -15 1 -15 18
0 28 26 88 22 106 -5 33 -54 26 -147 -14 -168 -26 -14 -83 -13 -98 2 -9 9 -12
-2 -12 -49 0 -50 3 -62 18 -66 9 -3 -5 -5 -33 -5 -27 0 -44 2 -37 5 17 7 17
289 0 296 -7 3 2 6 20 6 23 1 32 -3 32 -16z m610 -110 c0 -156 -8 -178 -65
-178 -30 0 -41 4 -43 18 -2 10 3 17 12 17 9 0 16 -7 16 -15 0 -8 9 -15 19 -15
26 0 31 30 27 168 -2 85 -6 116 -17 123 -10 6 -5 9 19 9 l32 0 0 -127z m110
107 c-11 -11 -20 -31 -20 -45 0 -23 4 -25 44 -25 25 0 48 5 51 11 12 18 -5 60
-28 69 l-22 9 22 0 c30 1 63 -36 63 -71 0 -28 0 -28 -65 -28 -63 0 -65 -1 -65
-25 0 -31 33 -65 62 -65 12 0 32 10 45 22 13 12 23 16 23 10 0 -20 -44 -42
-83 -42 -27 0 -45 7 -62 25 -50 49 -23 175 37 175 17 0 17 -1 -2 -20z m339 1
c-20 -16 -24 -28 -24 -79 0 -68 15 -92 56 -92 37 0 49 24 49 94 0 43 -5 61
-20 76 -16 16 -17 20 -5 20 9 0 27 -11 40 -25 20 -19 25 -34 25 -75 0 -68 -30
-100 -93 -100 -61 0 -91 32 -91 100 0 38 5 55 24 75 13 14 32 25 43 25 18 0
17 -2 -4 -19z m289 -11 l3 -25 -16 23 c-24 33 -80 28 -80 -8 0 -20 8 -27 49
-42 27 -9 53 -23 58 -30 25 -41 -12 -88 -69 -88 -67 0 -83 9 -83 44 l1 31 15
-27 c15 -28 47 -43 81 -36 12 2 18 12 18 32 0 25 -6 30 -52 48 -51 19 -59 29
-53 68 4 31 23 41 74 38 46 -3 51 -5 54 -28z m330 23 c-36 -9 -48 -132 -16
-170 18 -22 75 -16 92 9 9 12 16 18 16 14 0 -5 -7 -18 -17 -28 -24 -27 -85
-24 -120 6 -24 21 -28 32 -28 74 0 40 5 56 24 76 14 14 34 25 45 25 16 -1 17
-2 4 -6z m76 -15 c17 -23 13 -38 -10 -38 -8 0 -14 10 -14 24 0 15 -7 26 -17
29 -14 4 -13 5 4 6 12 0 29 -9 37 -21z m96 -68 c0 -74 3 -91 18 -99 13 -8 6
-10 -33 -11 -33 0 -45 3 -36 9 10 6 16 34 19 84 3 59 0 77 -13 90 -15 16 -14
17 14 17 l31 0 0 -90z m192 73 c14 -13 18 -31 18 -94 0 -52 4 -79 13 -82 6 -3
-3 -6 -20 -6 -24 -1 -33 4 -33 15 0 14 -2 14 -22 0 -27 -19 -69 -21 -86 -4 -7
7 -12 27 -12 45 0 26 6 36 30 48 16 8 43 15 60 15 29 0 31 2 28 33 -3 29 -6
32 -40 35 -35 3 -38 1 -38 -22 0 -16 -6 -26 -15 -26 -18 0 -20 31 -3 48 18 18
98 15 120 -5z m278 13 c0 -2 -9 -6 -20 -9 -11 -3 -18 -1 -14 4 5 9 34 13 34 5z
m260 -16 c11 -11 20 -33 20 -50 l0 -30 -65 0 c-63 0 -65 -1 -65 -25 0 -31 33
-65 62 -65 12 0 32 10 45 22 13 12 23 16 23 10 0 -20 -44 -42 -83 -42 -56 0
-87 34 -87 98 0 70 27 102 86 102 31 0 50 -6 64 -20z m174 14 c9 -3 16 -16 16
-27 0 -21 0 -21 -16 1 -23 33 -79 28 -79 -8 0 -20 8 -27 49 -42 57 -20 68 -33
61 -68 -8 -34 -32 -50 -74 -50 -65 0 -81 9 -81 44 1 28 2 29 12 11 25 -47 88
-62 107 -26 14 25 -3 44 -61 65 -46 17 -54 27 -48 66 1 8 7 21 12 28 11 12 75
17 102 6z m584 -1 c-11 -3 -18 -14 -18 -29 0 -15 -6 -24 -15 -24 -18 0 -20 31
-3 48 7 7 21 11 33 11 16 -1 17 -2 3 -6z m84 -10 c14 -13 18 -31 18 -94 0 -52
4 -79 13 -82 6 -3 -3 -6 -20 -6 -24 -1 -33 4 -33 15 0 14 -2 14 -22 0 -27 -19
-69 -21 -86 -4 -7 7 -12 27 -12 45 0 26 6 36 30 48 16 8 43 15 60 15 27 0 30
3 30 30 0 22 -6 33 -22 40 l-23 9 24 0 c14 1 33 -6 43 -16z m126 9 c-16 -7
-15 -13 13 -72 l32 -65 28 60 c34 72 34 72 12 78 -10 3 0 5 22 5 22 0 33 -2
24 -5 -10 -2 -37 -53 -69 -131 -28 -70 -58 -137 -66 -149 -16 -26 -59 -31 -67
-8 -8 20 11 29 28 15 20 -16 37 -2 54 45 12 35 11 41 -29 131 -24 51 -50 95
-59 97 -9 3 9 5 39 5 30 0 47 -3 38 -6z"/>
<path d="M6400 10227 c0 -9 4 -18 9 -21 5 -4 8 1 7 9 -3 21 -16 31 -16 12z"/>
<path d="M6376 10095 c-3 -9 0 -15 9 -15 8 0 15 7 15 15 0 8 -4 15 -9 15 -5 0
-11 -7 -15 -15z"/>
<path d="M6385 10010 c-3 -5 -1 -10 4 -10 6 0 11 5 11 10 0 6 -2 10 -4 10 -3
0 -8 -4 -11 -10z"/>
<path d="M5961 9984 c0 -11 3 -14 6 -6 3 7 2 16 -1 19 -3 4 -6 -2 -5 -13z"/>
<path d="M5966 9905 c-3 -8 -1 -15 4 -15 6 0 10 7 10 15 0 8 -2 15 -4 15 -2 0
-6 -7 -10 -15z"/>
<path d="M5231 9724 c0 -11 3 -14 6 -6 3 7 2 16 -1 19 -3 4 -6 -2 -5 -13z"/>
<path d="M5191 9714 c0 -11 3 -14 6 -6 3 7 2 16 -1 19 -3 4 -6 -2 -5 -13z"/>
<path d="M5586 9675 c4 -8 11 -15 16 -15 6 0 5 6 -2 15 -7 8 -14 15 -16 15 -2
0 -1 -7 2 -15z"/>
<path d="M5330 9550 c0 -5 5 -10 10 -10 6 0 10 5 10 10 0 6 -4 10 -10 10 -5 0
-10 -4 -10 -10z"/>
<path d="M5398 9543 c7 -3 16 -2 19 1 4 3 -2 6 -13 5 -11 0 -14 -3 -6 -6z"/>
<path d="M5213 9465 c-3 -9 -3 -18 -1 -21 3 -3 8 4 11 16 6 23 -1 27 -10 5z"/>
<path d="M4810 9376 c-382 -131 -720 -348 -1001 -644 -356 -375 -574 -836
-651 -1377 -19 -134 -16 -502 6 -650 39 -270 102 -480 207 -689 49 -97 133
-231 152 -243 5 -3 -2 11 -16 32 -28 41 -26 55 12 89 20 18 20 19 1 45 -35 50
-138 265 -169 355 -156 444 -169 976 -36 1441 145 508 478 968 925 1277 262
182 532 301 844 373 l101 24 -140 0 c-132 0 -145 -2 -235 -33z"/>
<path d="M5230 9390 c-666 -113 -1241 -487 -1610 -1045 -173 -262 -289 -558
-347 -885 -22 -127 -26 -173 -26 -375 0 -188 3 -255 21 -370 41 -263 98 -440
210 -657 36 -71 68 -128 72 -128 4 0 285 277 329 325 2 3 -14 44 -36 92 -72
155 -113 304 -139 498 -22 168 -15 467 16 620 154 771 772 1362 1570 1502 180
31 453 36 617 10 703 -112 1259 -552 1523 -1206 81 -201 140 -505 140 -716 -1
-227 -73 -523 -180 -734 l-32 -64 164 -164 c144 -145 164 -161 175 -146 21 28
101 186 139 274 50 118 80 207 113 334 48 184 56 252 55 490 -1 286 -29 458
-118 730 -88 265 -209 493 -395 741 -68 91 -335 352 -441 430 -325 241 -638
375 -1035 445 -153 26 -627 26 -785 -1z m458 -177 l-3 -128 -25 0 -25 0 -3
114 c-1 63 0 121 2 128 3 7 17 13 31 13 l26 0 -3 -127z m-206 100 c10 -9 18
-30 18 -50 0 -30 -3 -33 -30 -33 -27 0 -30 3 -30 30 0 24 -4 30 -21 30 -21 0
-21 -3 -15 -82 4 -46 11 -87 16 -92 15 -15 30 4 30 40 0 31 2 34 30 34 26 0
30 -3 30 -29 0 -44 -10 -62 -42 -75 -39 -17 -86 -8 -103 18 -8 12 -18 60 -21
107 -6 83 -6 87 17 102 30 22 97 22 121 0z m472 -1 c2 -4 8 -63 12 -130 l7
-122 -27 0 c-21 0 -26 5 -26 25 0 21 -5 25 -29 25 -20 0 -30 -6 -34 -20 -5
-21 -23 -25 -45 -12 -10 7 -4 34 25 125 l38 117 37 0 c20 0 39 -4 42 -8z
m-760 -44 c19 -29 41 -158 32 -192 -9 -35 -78 -55 -116 -34 -34 19 -78 167
-61 204 21 47 119 61 145 22z m1003 -2 c1 -1 -10 -41 -23 -91 -30 -111 -30
-125 -4 -125 20 0 38 -25 27 -36 -7 -7 -117 17 -117 25 0 7 49 211 55 229 3 8
14 10 32 6 16 -4 29 -7 30 -8z m-1292 -71 c31 -30 31 -43 3 -54 -19 -7 -27 -4
-41 15 -20 26 -37 24 -37 -6 0 -14 14 -23 55 -34 58 -18 85 -44 85 -86 0 -31
-8 -44 -37 -59 -36 -18 -80 -14 -97 11 -18 25 -21 58 -7 58 5 0 16 3 24 6 10
3 17 -3 21 -20 8 -31 46 -37 46 -7 0 25 -14 35 -78 56 -52 17 -72 37 -72 72 0
29 14 43 56 58 52 19 51 19 79 -10z m1708 -76 c67 -35 78 -81 30 -119 -16 -12
-23 -25 -19 -37 8 -24 -29 -83 -51 -84 -38 -3 -133 28 -133 43 0 3 18 46 41
95 22 48 45 98 50 110 9 24 23 22 82 -8z m-2114 -110 c11 -12 36 -52 56 -90
33 -63 35 -71 23 -96 -17 -36 -80 -61 -111 -44 -31 17 -107 131 -107 162 0 28
31 62 70 78 37 15 47 13 69 -10z m2371 -31 c27 -18 50 -38 50 -45 0 -21 -19
-24 -46 -6 -26 16 -27 16 -45 -6 -25 -30 -24 -36 6 -49 14 -6 25 -16 25 -21 0
-20 -22 -22 -46 -6 -14 9 -27 15 -28 13 -30 -45 -37 -63 -29 -65 6 -2 19 -10
29 -17 15 -11 16 -17 6 -29 -11 -13 -19 -11 -61 17 -42 27 -47 34 -38 51 19
38 118 195 123 195 2 0 27 -15 54 -32z m-2625 -128 c-14 -16 -10 -24 51 -100
63 -78 66 -84 49 -96 -10 -8 -22 -14 -26 -14 -4 0 -36 34 -70 75 -61 75 -76
84 -95 65 -8 -8 -14 -6 -23 4 -10 11 -1 22 46 59 43 35 60 43 70 35 11 -9 11
-14 -2 -28z m2835 -27 c50 -34 63 -71 36 -105 -16 -22 -30 -23 -47 -2 -10 13
-10 19 0 36 15 24 1 44 -24 34 -13 -5 -16 -13 -11 -34 21 -86 19 -110 -7 -136
-36 -36 -69 -33 -106 9 -36 42 -35 38 -16 75 16 31 23 34 49 24 20 -8 20 -23
0 -45 -17 -19 -11 -39 11 -39 26 0 33 32 22 97 -10 55 -9 65 8 83 22 24 52 26
85 3z m-3038 -149 c-28 -19 -28 -35 -1 -58 20 -17 22 -17 45 5 19 17 27 20 36
11 9 -9 6 -17 -11 -36 l-22 -24 26 -27 27 -26 24 22 c19 18 27 20 36 11 9 -9
3 -21 -27 -52 -21 -22 -42 -40 -47 -40 -12 0 -178 153 -178 164 0 6 19 30 42
53 38 38 44 41 57 28 14 -13 13 -17 -7 -31z m3288 -111 c0 -16 -22 -17 -38 -1
-13 13 -22 6 -113 -80 -36 -34 -52 -43 -68 -37 -35 11 -24 32 55 107 65 62 73
74 60 84 -19 14 -21 31 -3 37 13 5 107 -91 107 -110z m-3386 -131 c87 -71 95
-97 50 -151 -29 -34 -58 -39 -92 -15 -26 18 -28 36 -7 54 12 10 20 9 40 -4 30
-20 31 -20 38 -2 4 10 -20 34 -71 72 -42 31 -81 61 -86 65 -12 11 23 51 40 47
6 -2 46 -31 88 -66z m3580 -126 c15 -24 15 -25 -45 -75 -33 -28 -57 -51 -52
-51 4 0 35 9 67 20 75 25 83 25 92 -2 5 -18 -3 -31 -52 -75 l-59 -53 73 26
c41 14 75 24 77 22 8 -10 26 -50 23 -53 -4 -4 -226 -65 -236 -65 -5 0 -14 12
-21 26 -10 23 -9 28 10 42 36 25 90 74 86 78 -2 2 -30 -5 -62 -16 -73 -25 -77
-25 -94 2 -13 22 -9 27 79 110 52 49 94 88 96 88 1 0 9 -11 18 -24z m-3733
-117 c89 -53 102 -95 48 -162 -27 -35 -53 -34 -139 5 -84 39 -100 65 -75 124
36 87 65 93 166 33z m-191 -274 c17 -9 30 -20 30 -26 0 -6 5 -7 11 -3 6 3 36
-2 66 -12 50 -17 54 -20 48 -44 -9 -35 -10 -35 -64 -18 -36 11 -52 13 -60 5
-21 -21 -10 -36 39 -52 50 -17 61 -33 41 -64 -8 -12 -24 -10 -98 13 -97 30
-143 46 -143 52 0 17 46 133 58 147 19 21 34 21 72 2z m4130 -51 c19 -50 13
-60 -72 -115 -46 -29 -93 -59 -105 -67 -21 -13 -23 -12 -33 14 -9 24 -8 31 8
44 28 23 15 66 -20 63 -20 -1 -28 4 -33 24 -3 14 -4 27 -2 30 7 7 158 30 205
32 37 1 44 -2 52 -25z m73 -266 c4 -28 0 -37 -31 -64 l-36 -31 44 -15 c37 -12
46 -20 51 -46 4 -18 4 -32 0 -32 -3 0 -39 11 -79 24 -60 19 -83 21 -120 15
-25 -5 -47 -8 -49 -6 -1 2 -6 17 -9 34 -6 30 -5 31 41 37 37 6 59 19 108 61
34 30 65 54 68 54 4 1 9 -14 12 -31z m-4285 -9 c35 -12 46 -36 43 -96 l-2 -42
47 -7 c45 -6 46 -7 40 -37 -3 -17 -7 -31 -9 -32 -1 -1 -55 5 -119 14 l-118 15
0 28 c0 50 22 130 41 149 22 22 34 23 77 8z m-34 -416 c-4 -27 -13 -64 -20
-83 l-13 -35 0 51 c-1 55 15 114 31 114 5 0 6 -19 2 -47z m4323 -43 c4 -32 2
-50 -5 -50 -15 0 -32 56 -32 104 0 39 0 40 15 18 9 -12 19 -44 22 -72z m-4377
-65 c0 -7 6 -17 13 -23 9 -8 16 -6 25 8 6 11 21 24 32 30 18 10 19 9 10 -16
-6 -15 -23 -42 -39 -59 l-28 -32 -20 31 c-12 17 -24 51 -28 76 l-6 45 21 -24
c11 -13 20 -29 20 -36z m4411 -44 c-12 -22 -22 -55 -22 -73 l-2 -33 -4 30 c-3
17 -15 41 -28 55 -52 57 -62 110 -11 61 l34 -33 23 48 23 49 4 -32 c2 -18 -5
-48 -17 -72z m-4425 -82 l26 -41 18 30 c23 37 40 49 40 27 0 -22 -24 -66 -47
-88 -19 -16 -20 -16 -36 0 -19 22 -37 67 -37 94 0 28 7 24 36 -22z m4460 24
c-3 -10 -8 -30 -11 -45 -4 -14 -15 -34 -26 -44 -11 -10 -20 -32 -21 -53 l-1
-36 -4 35 c-3 19 -11 42 -18 50 -18 20 -48 91 -41 97 3 3 19 -10 35 -28 17
-18 32 -31 34 -28 3 2 12 19 21 37 17 34 41 45 32 15z m-4380 -144 c-3 -18
-16 -47 -27 -66 l-22 -35 -23 24 c-26 26 -59 98 -45 98 5 0 21 -15 35 -32 22
-28 26 -30 26 -13 0 15 3 16 9 7 6 -10 11 -5 21 17 16 41 34 40 26 0z m4293
-4 c23 -39 37 -44 46 -16 7 22 45 59 45 43 0 -26 -34 -93 -51 -103 -11 -5 -20
-20 -20 -32 -1 -20 -2 -20 -8 3 -3 14 -13 39 -22 55 -21 39 -32 85 -20 85 5 0
18 -16 30 -35z m-4294 -170 c-10 -27 -13 -53 -9 -71 l7 -29 12 35 c15 44 40
55 31 14 -16 -85 -17 -119 -2 -139 15 -19 15 -19 16 10 1 17 5 39 9 50 7 16 9
13 15 -18 4 -20 4 -52 1 -70 -5 -25 -1 -39 15 -57 l21 -25 -2 25 c-1 14 0 36
1 50 2 25 2 25 15 -5 8 -16 14 -47 15 -67 0 -20 6 -43 13 -50 6 -7 18 -21 26
-31 12 -15 11 -17 -8 -17 -12 0 -20 4 -17 9 10 15 -22 34 -47 27 -14 -3 -35 3
-57 17 l-35 22 42 5 41 5 -18 23 c-10 12 -25 22 -34 22 -25 0 -61 20 -74 41
-10 16 -9 19 4 19 8 0 24 -5 35 -10 14 -8 19 -7 19 2 -1 19 -31 52 -61 67 -32
16 -68 71 -46 71 8 0 26 -9 40 -20 l25 -20 -11 36 c-6 19 -19 40 -29 45 -22
12 -58 67 -58 88 0 10 11 5 30 -14 l30 -29 1 30 c1 26 2 27 7 6 7 -22 8 -21
27 15 l20 37 3 -28 c2 -16 -4 -48 -13 -71z m4281 45 c7 -22 13 -28 17 -19 4
10 6 9 6 -4 1 -15 6 -13 27 12 14 17 30 29 35 25 14 -8 -27 -79 -54 -91 -15
-7 -27 -23 -30 -40 -7 -36 -3 -39 25 -19 34 24 40 20 23 -15 -9 -17 -30 -36
-46 -43 -17 -7 -39 -28 -50 -46 -19 -30 -19 -32 -2 -25 33 14 63 17 63 8 0
-17 -38 -45 -71 -52 -17 -3 -38 -16 -47 -29 -14 -21 -14 -22 24 -22 l38 0 -21
-22 c-15 -15 -33 -21 -59 -20 -38 2 -68 -13 -58 -29 3 -5 -5 -9 -17 -9 -23 0
-22 0 4 28 15 15 27 36 27 45 0 9 5 39 11 67 12 58 33 58 27 -1 -4 -44 -1 -47
18 -21 8 10 13 45 14 92 0 77 11 85 27 20 9 -35 10 -35 22 -12 9 18 10 31 2
54 -14 39 -15 116 -1 102 5 -5 13 -27 18 -49 l9 -40 8 29 c5 19 3 47 -5 75
-23 83 -24 94 -9 89 8 -2 19 -20 25 -38z"/>
<path d="M5892 9201 c-16 -50 -15 -51 8 -51 18 0 20 4 14 43 -4 23 -8 43 -9
45 -1 1 -7 -15 -13 -37z"/>
<path d="M5105 9241 c-3 -6 -1 -29 5 -51 5 -22 15 -58 20 -80 10 -39 33 -53
42 -27 3 6 -2 46 -11 87 -11 53 -21 76 -33 78 -9 2 -19 -2 -23 -7z"/>
<path d="M6571 9064 c-10 -22 -9 -29 1 -35 17 -11 40 10 36 34 -5 31 -23 31
-37 1z"/>
<path d="M6525 8970 c-20 -39 -19 -50 5 -50 23 0 46 40 37 64 -10 24 -25 19
-42 -14z"/>
<path d="M4415 8970 c-6 -10 53 -117 82 -145 16 -17 33 -12 33 10 0 7 -17 42
-39 76 -37 62 -62 81 -76 59z"/>
<path d="M3663 8154 c-7 -19 10 -34 80 -70 51 -26 82 -28 82 -5 0 14 -120 91
-142 91 -8 0 -16 -7 -20 -16z"/>
<path d="M3530 7840 c-9 -17 -7 -22 15 -30 36 -14 42 -13 49 7 5 11 1 22 -10
30 -25 18 -42 16 -54 -7z"/>
<path d="M7603 7823 c-23 -3 -33 -9 -33 -22 0 -30 11 -32 49 -9 66 39 65 41
-16 31z"/>
<path d="M3452 7518 c-23 -23 -14 -48 18 -49 17 -1 36 -2 43 -3 6 -1 13 9 15
21 3 17 -3 26 -23 33 -34 13 -38 13 -53 -2z"/>
<path d="M6188 9380 c295 -75 513 -170 762 -335 571 -378 947 -977 1056 -1685
25 -161 25 -506 0 -640 -46 -247 -125 -475 -244 -702 -54 -104 -55 -108 -38
-127 10 -11 15 -25 11 -30 -3 -6 -2 -11 3 -11 26 0 176 319 238 507 107 324
132 624 84 982 -71 519 -317 1031 -681 1416 -215 227 -540 449 -829 568 -192
78 -228 87 -357 86 l-118 -1 113 -28z"/>
<path d="M5404 8965 c-653 -72 -1226 -471 -1515 -1055 -246 -497 -252 -1114
-17 -1587 12 -24 25 -43 28 -43 4 0 15 9 25 21 l19 20 18 -23 c18 -22 18 -22
2 17 -9 22 -25 58 -36 79 -34 67 -87 224 -108 319 -140 639 98 1333 600 1752
213 177 488 315 760 379 258 62 618 62 885 1 254 -58 537 -192 730 -344 61
-49 210 -196 266 -263 293 -352 439 -810 400 -1253 -22 -243 -68 -422 -161
-620 -80 -173 -127 -235 -316 -422 -96 -95 -170 -173 -165 -173 5 0 64 22 132
50 68 28 129 50 136 50 16 0 77 -61 253 -255 l135 -148 52 59 c29 33 60 73 68
89 9 17 23 41 31 55 9 14 3 9 -14 -10 -17 -19 -33 -33 -35 -30 -103 100 -399
395 -416 413 l-23 26 40 58 c22 32 58 88 80 126 38 67 39 67 57 47 10 -11 22
-20 26 -20 16 0 105 206 143 330 45 149 57 221 63 385 10 291 -35 538 -152
813 -93 221 -184 358 -400 601 -16 18 -73 69 -125 113 -309 259 -671 410
-1070 447 -144 14 -242 12 -396 -4z"/>
<path d="M5599 8401 c-68 -21 -99 -61 -99 -127 0 -29 8 -44 39 -75 35 -35 44
-39 89 -39 46 0 56 4 92 38 32 32 40 46 40 75 0 55 -18 82 -70 111 -51 28 -52
28 -91 17z m16 -41 c3 -5 -1 -10 -9 -10 -9 0 -16 5 -16 10 0 6 4 10 9 10 6 0
13 -4 16 -10z"/>
<path d="M6180 8352 c-55 -24 -80 -62 -80 -121 0 -83 94 -139 177 -106 23 9
50 29 59 43 22 33 22 103 1 135 -30 45 -109 70 -157 49z m71 -44 c15 -27 3
-65 -22 -73 -35 -11 -66 2 -74 32 -14 56 69 91 96 41z"/>
<path d="M4970 8331 c-8 -6 -18 -8 -22 -5 -4 3 -17 -10 -28 -28 -66 -108 56
-232 170 -173 61 31 91 122 57 169 -26 36 -141 59 -177 37z m68 -54 c12 -24
11 -31 -2 -53 -23 -35 -83 -34 -96 1 -27 71 66 120 98 52z"/>
<path d="M6705 8205 c-59 -21 -85 -56 -85 -115 0 -40 5 -55 30 -83 76 -87 220
-34 220 80 0 53 -11 75 -47 101 -41 28 -73 32 -118 17z"/>
<path d="M4414 8168 l-19 -23 23 19 c21 18 27 26 19 26 -2 0 -12 -10 -23 -22z"/>
<path d="M4614 8157 c10 -17 18 -48 18 -75 1 -40 2 -43 8 -19 10 34 -4 90 -27
108 -16 13 -16 11 1 -14z"/>
<path d="M4651 7793 c104 -231 105 -234 149 -328 20 -44 54 -119 75 -167 22
-49 43 -88 48 -88 4 0 6 -4 3 -8 -6 -11 29 -79 56 -109 12 -12 18 -29 14 -40
-3 -10 1 -29 10 -43 l14 -25 -6 29 c-5 21 -4 27 5 22 6 -4 11 -3 11 3 0 5 -3
11 -7 13 -10 4 -45 68 -118 213 -67 132 -78 198 -34 203 22 3 29 -5 55 -55 16
-32 38 -87 50 -123 l20 -65 18 38 c10 21 16 41 12 44 -3 3 -6 -1 -6 -9 0 -9
-7 -21 -15 -28 -10 -9 -15 -9 -15 -1 0 6 5 11 11 11 7 0 9 13 5 38 -3 20 -7
42 -8 49 -1 7 -6 10 -12 7 -6 -3 -3 1 8 10 10 8 15 19 12 25 -4 5 -2 12 4 16
31 19 -2 87 -54 109 -23 10 -78 69 -182 197 -83 101 -159 196 -169 211 -42 58
-31 22 46 -149z m325 -428 c21 -50 16 -67 -6 -20 -20 43 -23 55 -14 55 3 0 12
-16 20 -35z"/>
<path d="M6624 7902 c-27 -33 -104 -127 -172 -210 -104 -128 -128 -152 -156
-157 -28 -6 -33 -10 -28 -28 3 -12 12 -28 20 -36 12 -12 11 -17 -10 -34 -12
-10 -17 -16 -9 -12 30 16 40 -42 16 -89 -16 -31 -20 -56 -7 -40 5 5 21 39 36
77 31 75 70 115 92 96 23 -19 13 -81 -25 -147 -7 -13 -10 -26 -7 -29 3 -4 15
16 27 43 12 27 46 102 75 167 30 65 54 120 54 122 0 3 16 36 35 76 19 39 37
80 41 92 4 12 22 53 40 91 19 38 32 71 30 73 -2 2 -25 -23 -52 -55z"/>
<path d="M5017 7543 c-9 -2 -15 -9 -12 -14 9 -14 22 -11 29 6 3 8 4 14 3 14
-1 -1 -10 -3 -20 -6z"/>
<path d="M6276 7385 c-4 -11 -12 -30 -17 -43 -15 -37 -10 -39 12 -5 11 18 19
40 16 50 -4 16 -5 16 -11 -2z"/>
<path d="M6246 7363 c-6 -14 -5 -15 5 -6 7 7 10 15 7 18 -3 3 -9 -2 -12 -12z"/>
<path d="M6251 7270 c0 -8 4 -22 9 -30 12 -18 12 -2 0 25 -6 13 -9 15 -9 5z"/>
<path d="M6345 7242 c-10 -20 -20 -46 -21 -57 -2 -11 8 4 22 34 28 61 27 80
-1 23z"/>
<path d="M5012 7235 c-7 -16 -8 -33 -2 -47 7 -19 9 -19 9 -5 1 12 5 16 14 11
8 -6 8 -3 -1 9 -8 9 -11 25 -7 37 9 28 1 25 -13 -5z"/>
<path d="M6285 7110 c-10 -11 -16 -22 -13 -25 3 -3 13 6 22 20 20 30 16 32 -9
5z"/>
<path d="M8491 6874 c0 -11 3 -14 6 -6 3 7 2 16 -1 19 -3 4 -6 -2 -5 -13z"/>
<path d="M3995 6244 c10 -17 26 -41 37 -55 l20 -24 -17 31 c-10 17 -26 41 -37
55 l-20 24 17 -31z"/>
<path d="M4094 6102 c10 -11 16 -25 15 -31 -2 -6 -105 -112 -229 -236 l-225
-226 -39 43 c-21 24 -34 36 -29 28 20 -32 89 -117 127 -157 l40 -43 187 192
187 192 74 -26 c40 -14 104 -38 142 -52 79 -30 81 -36 -22 73 -30 31 -92 100
-138 153 -46 53 -90 100 -97 104 -6 4 -4 -2 7 -14z"/>
<path d="M7709 5812 c-9 -15 -26 -45 -39 -67 -34 -58 -17 -39 30 33 22 34 36
62 32 62 -4 0 -14 -12 -23 -28z"/>
<path d="M3900 5574 c-124 -129 -226 -241 -228 -248 -8 -35 301 -358 451 -470
186 -139 406 -265 607 -346 l85 -35 805 -3 805 -3 70 23 c105 34 305 139 445
233 212 142 438 353 589 548 l43 57 -114 117 c-62 65 -165 173 -228 239 -63
67 -117 122 -120 123 -3 0 -75 -68 -160 -152 -227 -224 -406 -356 -636 -468
-250 -122 -426 -163 -689 -163 -203 0 -290 13 -465 70 -294 96 -583 285 -884
575 -79 76 -145 139 -147 139 -2 0 -105 -106 -229 -236z m299 -198 c51 -55 63
-90 39 -114 -7 -7 -20 -12 -30 -12 -13 0 -18 -8 -18 -30 0 -30 -22 -50 -55
-50 -21 0 -146 119 -139 132 3 5 13 7 21 4 22 -9 115 82 108 106 -12 35 21 19
74 -36z m2911 33 c0 -13 19 -39 45 -63 51 -48 56 -72 25 -121 -26 -42 -61 -65
-99 -65 -23 0 -40 11 -72 45 -23 25 -51 45 -61 45 -26 0 -22 12 16 49 34 33
61 35 49 5 -7 -18 63 -94 86 -94 19 0 51 29 51 47 0 24 -72 95 -92 90 -32 -9
-31 14 3 49 38 39 49 42 49 13z m-2754 -180 c57 -44 69 -66 60 -105 -5 -17
-16 -26 -37 -31 -28 -5 -30 -8 -27 -46 5 -66 23 -67 116 -8 72 47 83 51 102
39 19 -12 20 -18 13 -83 -4 -38 -7 -89 -6 -112 1 -24 -1 -43 -4 -43 -3 0 -26
11 -50 25 -43 26 -56 45 -29 45 29 0 25 18 -6 38 -36 23 -48 21 -41 -8 8 -30
-5 -25 -82 28 l-70 49 3 51 c3 42 1 52 -11 52 -20 0 -32 -19 -29 -42 5 -27
-19 -21 -55 12 -39 35 -42 50 -10 50 27 0 102 83 94 104 -5 13 0 26 11 26 3 0
29 -18 58 -41z m2564 -14 c16 -20 -3 -45 -29 -38 -23 6 -56 -26 -42 -40 6 -6
25 -4 56 6 36 13 51 14 70 5 53 -24 17 -118 -55 -148 -27 -11 -34 -11 -47 3
-21 21 -10 50 17 42 27 -9 60 11 60 37 0 17 -4 19 -27 13 -16 -4 -47 -9 -70
-12 -38 -4 -44 -2 -52 18 -12 34 8 79 49 107 39 26 53 27 70 7z m-150 -104
c16 -32 12 -41 -20 -41 -16 0 -30 -3 -30 -7 0 -4 14 -31 32 -60 24 -39 37 -52
49 -48 36 12 28 -15 -12 -45 -54 -38 -73 -39 -65 -2 4 20 -2 40 -24 75 -34 53
-45 58 -54 22 -8 -31 -20 -32 -41 -2 -15 20 -14 23 2 35 48 34 139 91 145 92
4 0 12 -9 18 -19z m-187 -120 c-4 -31 45 -122 68 -128 29 -8 23 -21 -21 -43
-51 -26 -64 -26 -57 2 8 30 -36 124 -62 131 -31 8 -26 20 17 45 43 25 58 23
55 -7z m-1809 -22 c90 -42 88 -56 -16 -104 l-83 -37 33 -16 c26 -13 35 -13 41
-4 7 11 41 7 41 -5 0 -4 -20 -45 -26 -51 -1 -2 -41 13 -88 35 -57 25 -85 43
-83 53 1 8 38 29 82 48 44 18 81 35 84 37 9 10 -10 18 -46 21 -21 1 -41 2 -45
3 -12 2 14 51 27 51 7 0 43 -14 79 -31z m1699 -16 c4 -3 2 -11 -3 -18 -7 -8
-1 -29 17 -66 14 -30 28 -74 30 -99 5 -41 3 -46 -25 -62 -17 -10 -35 -18 -41
-18 -17 0 -13 30 4 36 8 4 15 15 15 25 0 31 -56 145 -74 152 -25 10 -19 27 17
42 36 16 51 18 60 8z m-1547 -49 c38 -16 38 -16 17 -32 -31 -24 -66 -118 -53
-142 15 -29 -3 -32 -54 -10 -47 20 -61 40 -27 40 23 0 64 100 55 136 -7 29 7
31 62 8z m1360 -40 c-4 -14 0 -50 9 -79 19 -68 8 -98 -47 -119 -81 -33 -119
-17 -138 57 -19 73 -21 77 -36 77 -30 0 -13 29 24 39 56 16 58 15 58 -42 0
-56 23 -107 47 -107 7 0 22 6 32 14 18 13 19 18 7 63 -7 28 -23 57 -38 69
l-25 21 38 15 c60 25 76 23 69 -8z m-1255 4 c37 -11 55 -38 25 -38 -13 0 -46
-86 -46 -118 0 -17 30 -22 50 -10 28 18 44 -1 31 -35 l-10 -25 -80 21 c-77 20
-102 40 -67 53 21 8 49 100 42 135 -6 33 -1 34 55 17z m178 -44 c33 -7 39 -18
18 -39 -7 -7 -19 -38 -26 -69 -10 -45 -10 -60 0 -72 18 -22 5 -27 -45 -20 -54
8 -65 20 -38 44 24 21 48 120 32 136 -25 25 -3 32 59 20z m827 -69 c0 -51 5
-72 23 -96 13 -17 21 -33 18 -35 -2 -3 -27 -7 -56 -11 -50 -6 -62 2 -40 24 15
15 0 112 -22 134 -33 33 -21 44 51 48 24 1 25 -1 26 -64z m-639 33 c4 -7 19
-49 33 -93 23 -72 28 -80 50 -80 24 0 25 3 28 63 2 39 -2 69 -9 78 -16 20 -4
29 38 29 33 0 40 -5 70 -52 43 -67 53 -73 53 -28 0 22 -6 38 -15 41 -8 4 -15
12 -15 20 0 10 14 14 50 14 38 0 50 -4 50 -15 0 -8 -4 -15 -10 -15 -6 0 -10
-35 -10 -84 0 -47 -4 -87 -10 -91 -21 -13 -57 9 -90 55 -19 27 -38 50 -42 50
-15 0 -8 -68 7 -74 8 -3 15 -10 15 -16 0 -11 -137 -14 -189 -4 -28 6 -46 34
-21 34 6 0 10 4 10 9 0 9 -71 23 -79 16 -2 -3 1 -11 7 -17 7 -7 12 -16 12 -20
0 -9 -55 -10 -87 -2 -28 8 -30 30 -5 36 10 3 39 40 63 82 34 58 49 76 66 76
12 0 25 -6 30 -12z m523 -1 c0 -7 -4 -17 -9 -22 -6 -6 -6 -28 -1 -55 14 -71
12 -136 -5 -150 -20 -16 -77 -18 -82 -3 -3 7 7 17 21 23 20 7 25 15 22 32 -3
13 -8 49 -11 81 -4 36 -12 60 -21 64 -17 6 -18 30 -1 36 27 11 87 7 87 -6z"/>
<path d="M4150 5336 c-10 -13 -10 -19 0 -31 7 -8 18 -15 26 -15 23 0 27 22 7
42 -18 17 -21 17 -33 4z"/>
<path d="M4090 5275 c-10 -13 -10 -19 5 -35 10 -11 24 -20 30 -20 21 0 27 32
9 51 -21 23 -28 24 -44 4z"/>
<path d="M4316 5175 c-15 -23 -15 -25 5 -35 42 -23 71 22 30 47 -16 10 -22 8
-35 -12z"/>
<path d="M4504 5005 c-16 -13 -17 -16 -4 -25 22 -15 27 -12 32 15 6 29 0 31
-28 10z"/>
<path d="M5346 4704 c-9 -22 -8 -24 9 -24 8 0 15 9 15 20 0 24 -15 27 -24 4z"/>
<path d="M6891 5754 c-74 -30 -136 -56 -137 -57 -4 -4 66 -112 75 -115 10 -3
62 48 134 132 70 82 81 96 71 96 -5 -1 -70 -26 -143 -56z"/>
<path d="M4210 5781 c0 -6 28 -34 62 -63 34 -29 81 -71 105 -92 l44 -39 40 39
c21 21 38 42 36 47 -2 7 -268 117 -283 117 -2 0 -4 -4 -4 -9z"/>
<path d="M3550 5730 c12 -16 24 -30 26 -30 3 0 -4 14 -16 30 -12 17 -24 30
-26 30 -3 0 4 -13 16 -30z"/>
<path d="M8360 5689 c-14 -6 -60 -11 -103 -11 -43 -1 -81 -6 -84 -11 -9 -15
171 -1 227 17 40 12 42 14 15 14 -16 1 -41 -4 -55 -9z"/>
<path d="M3315 5129 c-16 -5 -55 -13 -85 -18 l-55 -9 61 -1 c35 0 77 6 98 14
57 24 43 33 -19 14z"/>
<path d="M3760 4690 l-25 -8 25 0 c14 0 36 4 50 8 l25 8 -25 0 c-14 0 -36 -4
-50 -8z"/>
<path d="M7343 4673 c9 -2 23 -2 30 0 6 3 -1 5 -18 5 -16 0 -22 -2 -12 -5z"/>
<path d="M3910 4620 c0 -6 7 -10 15 -10 8 0 15 2 15 4 0 2 -7 6 -15 10 -8 3
-15 1 -15 -4z"/>
<path d="M6440 4229 c-68 -21 -131 -39 -139 -39 -9 0 -11 -3 -5 -9 19 -18 434
-40 434 -23 0 4 -20 18 -44 31 -25 12 -55 36 -67 52 -12 16 -29 29 -38 28 -9
0 -72 -18 -141 -40z"/>
<path d="M3816 3978 c-3 -35 -8 -102 -11 -149 l-6 -87 33 -5 c18 -2 36 -3 41
0 4 2 7 26 7 54 l0 49 51 0 c43 0 55 5 80 29 35 36 39 86 9 124 -21 27 -36 31
-142 42 l-56 6 -6 -63z m144 -23 c6 -8 9 -23 5 -35 -5 -15 -15 -20 -41 -20
-32 0 -34 2 -34 35 0 32 3 35 29 35 16 0 34 -7 41 -15z"/>
<path d="M4086 4003 c-2 -10 -7 -78 -11 -150 l-7 -133 35 0 c38 0 47 14 47 78
0 17 4 32 8 32 5 0 21 -27 37 -60 28 -58 30 -60 67 -60 21 0 38 2 38 5 0 3
-11 28 -25 56 l-26 50 31 29 c24 22 30 36 30 68 0 72 -48 101 -167 102 -41 0
-53 -4 -57 -17z m147 -60 c11 -7 8 -38 -5 -51 -14 -14 -64 -16 -72 -3 -3 5 -3
23 0 40 6 30 9 32 38 25 17 -3 34 -8 39 -11z"/>
<path d="M4435 3989 c-74 -43 -105 -112 -85 -185 38 -133 221 -148 285 -23 32
61 11 149 -45 189 -38 27 -123 37 -155 19z m115 -79 c31 -31 28 -102 -6 -129
-35 -28 -69 -26 -99 4 -51 51 -18 145 51 145 21 0 42 -8 54 -20z"/>
<path d="M4805 3871 c-9 -129 -21 -151 -61 -108 -14 15 -36 27 -49 27 -36 0
-34 -43 4 -81 24 -24 38 -29 76 -29 69 0 91 27 100 121 4 41 5 97 3 124 -3 48
-4 50 -35 53 l-31 3 -7 -110z"/>
<path d="M4947 3964 c-3 -5 -8 -72 -12 -150 l-7 -141 23 -6 c13 -4 54 -7 92
-7 l67 0 0 30 c0 29 -1 30 -50 30 l-50 0 0 35 0 34 50 -6 50 -6 0 31 c0 30 -2
31 -47 34 -44 3 -48 5 -51 31 -3 27 -3 27 57 27 l61 0 0 30 c0 30 -1 30 -52
30 -29 0 -69 3 -89 6 -20 4 -39 2 -42 -2z"/>
<path d="M5159 3939 c-1 -10 -2 -25 -3 -31 -1 -13 3 -15 50 -17 l27 -1 -8
-121 -7 -120 39 3 38 3 5 107 c3 59 9 111 13 115 4 4 23 6 42 5 33 -2 35 -1
35 27 0 35 -8 37 -147 45 -76 4 -83 3 -84 -15z"/>
<path d="M5490 3918 c-143 -74 -92 -288 69 -288 89 0 151 64 151 155 0 118
-115 187 -220 133z m104 -59 c47 -22 55 -80 20 -136 -18 -29 -83 -32 -107 -5
-38 42 -29 118 16 140 29 14 41 14 71 1z"/>
<path d="M5885 3898 c-31 -18 -44 -40 -45 -74 0 -42 18 -63 81 -93 59 -29 70
-45 40 -61 -17 -8 -24 -7 -41 10 -23 23 -90 28 -90 6 0 -24 40 -64 76 -76 50
-17 98 -5 128 31 47 56 32 96 -55 140 -43 21 -59 35 -57 47 4 22 32 27 50 8 8
-8 32 -18 52 -21 30 -6 36 -4 36 10 0 64 -110 110 -175 73z"/>
<path d="M6159 3867 c-126 -84 -67 -277 85 -277 68 0 111 27 138 87 32 72 11
148 -51 190 -47 32 -125 32 -172 0z m144 -69 c22 -26 22 -89 -1 -118 -25 -31
-88 -32 -113 -1 -21 26 -25 81 -8 112 22 42 88 45 122 7z"/>
<path d="M6498 3848 c-95 -55 -94 -206 2 -262 42 -25 118 -26 154 -3 26 18 62
64 55 72 -14 13 -68 9 -94 -7 -41 -24 -61 -23 -92 8 -21 21 -25 32 -20 66 3
22 13 48 23 59 23 25 76 25 99 -1 12 -13 31 -20 57 -20 21 0 38 2 38 5 0 23
-37 68 -70 85 -51 26 -105 25 -152 -2z"/>
<path d="M6766 3743 c-13 -211 -16 -188 27 -191 l37 -3 1 48 c1 26 4 94 8 151
l6 102 -37 0 -36 0 -6 -107z"/>
<path d="M6925 3703 c-33 -75 -61 -140 -63 -145 -2 -4 14 -8 36 -8 31 0 41 5
49 23 9 20 16 22 65 19 49 -3 55 -6 65 -33 10 -25 17 -29 48 -29 26 0 36 4 32
13 -2 6 -16 55 -31 107 -58 201 -52 190 -100 190 l-42 0 -59 -137z m119 -25
c6 -27 5 -28 -29 -28 -38 0 -38 -5 -4 78 l12 27 7 -25 c4 -14 10 -37 14 -52z"/>
<path d="M7206 3713 c-4 -65 -8 -132 -10 -149 -4 -29 -1 -32 26 -38 17 -3 56
-6 87 -6 56 0 57 1 56 28 0 25 -3 27 -49 30 l-48 3 6 62 c9 100 10 162 2 175
-4 7 -20 12 -36 12 l-28 0 -6 -117z"/>
<path d="M2346 8418 c43 -75 140 -198 155 -198 5 0 -15 29 -46 65 -30 36 -66
83 -81 105 -24 36 -45 57 -28 28z"/>
<path d="M2209 7734 c15 -31 132 -149 161 -163 14 -7 1 10 -30 38 -30 28 -75
72 -99 98 -24 27 -38 38 -32 27z"/>
<path d="M2317 6369 c7 -7 15 -10 18 -7 3 3 -2 9 -12 12 -14 6 -15 5 -6 -5z"/>
<path d="M2436 4173 c-6 -14 -5 -15 5 -6 7 7 10 15 7 18 -3 3 -9 -2 -12 -12z"/>
<path d="M3040 2472 c0 -465 -13 -426 137 -420 207 8 288 95 300 323 14 269
-107 442 -332 475 -39 5 -78 10 -87 10 -17 0 -18 -25 -18 -388z"/>
<path d="M5701 2556 c-39 -96 -71 -179 -71 -185 0 -11 281 -16 292 -6 5 5
-135 351 -146 362 -2 2 -35 -75 -75 -171z"/>
<path d="M6474 2825 c-147 -74 -177 -299 -70 -530 45 -98 137 -194 210 -218
165 -56 306 18 336 177 23 125 -21 309 -106 436 -71 107 -141 151 -249 157
-61 4 -77 1 -121 -22z"/>
<path d="M4670 1761 c-86 -18 -146 -76 -176 -169 -27 -81 -27 -350 -1 -435 41
-134 157 -197 303 -167 49 10 67 20 106 59 69 69 83 124 83 331 -1 145 -3 172
-23 224 -26 70 -61 112 -117 137 -48 21 -127 30 -175 20z"/>
<path d="M5703 1463 c-39 -92 -69 -170 -67 -172 3 -4 277 -1 281 3 2 1 -15 47
-38 102 -23 54 -52 126 -66 159 -14 33 -28 64 -32 68 -5 4 -40 -68 -78 -160z"/>
<path d="M7477 1756 c-124 -34 -174 -125 -184 -336 -9 -172 20 -304 80 -368
81 -88 263 -92 350 -9 58 55 80 129 85 295 6 209 -15 298 -90 369 -18 17 -45
36 -59 41 -47 18 -132 22 -182 8z"/>
<path d="M3720 1376 l0 -376 83 0 c195 0 275 66 308 255 14 82 7 238 -15 308
-38 127 -116 178 -278 185 l-98 4 0 -376z"/>
<path d="M6109 608 l-66 -93 65 -3 c35 -2 66 -1 69 1 2 3 2 46 1 96 l-3 92
-66 -93z"/>
<path d="M7536 576 c-14 -32 -26 -60 -26 -62 0 -2 23 -4 51 -4 56 0 56 -1 19
85 l-17 40 -27 -59z"/>
<path d="M7815 656 c-44 -44 -46 -178 -3 -223 28 -29 97 -32 121 -5 33 36 40
149 13 213 -18 41 -95 50 -131 15z"/>
<path d="M8690 480 l0 -73 42 6 c47 6 68 27 68 67 0 39 -20 59 -67 66 l-43 7
0 -73z"/>
<path d="M10112 673 c-46 -18 -64 -178 -26 -230 17 -22 30 -29 66 -31 39 -3
49 1 66 23 42 53 40 178 -4 222 -22 22 -69 30 -102 16z"/>
<path d="M1180 592 c-27 -8 -40 -35 -40 -83 0 -71 14 -99 49 -99 37 0 52 19
58 73 8 69 -25 123 -67 109z"/>
<path d="M780 576 c-19 -23 -25 -101 -10 -136 11 -28 17 -31 49 -28 33 3 36 6
44 46 4 23 4 61 0 85 -8 37 -12 42 -39 45 -19 2 -36 -3 -44 -12z"/>
<path d="M2718 499 c-23 -13 -25 -74 -2 -83 33 -13 64 20 64 70 0 18 -5 24
-22 24 -13 0 -31 -5 -40 -11z"/>
<path d="M3240 571 c-5 -11 -10 -29 -10 -40 0 -18 6 -21 45 -21 52 0 65 16 47
56 -15 31 -66 34 -82 5z"/>
<path d="M4098 498 c-27 -21 -27 -72 -2 -82 30 -11 64 21 64 59 0 30 -3 35
-23 35 -13 0 -30 -6 -39 -12z"/>
</g>
</svg>
